<?xml version="1.0" encoding="UTF-8"?>
<svg id="Layer_1" data-name="Layer 1" xmlns="http://www.w3.org/2000/svg" width="150" height="100" viewBox="0 0 150 100">
  <defs>
    <style>
      .cls-1 {
        fill: #fff;
      }
    </style>
  </defs>
  <path class="cls-1" d="M62.77,57.82c-.03-.42-.16-.83-.47-1.14l-13.96-14.1V3.4H4.68V43.33c0,.48,.19,.93,.52,1.27l13.96,14.1v18.22H5.9c-.73,0-1.39,.44-1.67,1.11-.28,.67-.12,1.45,.4,1.97l15.07,15.07c.52,.52,1.28,.66,1.97,.39,.68-.28,1.11-.94,1.11-1.67v-13.26h22.43l14.53,14.54c.35,.35,.8,.53,1.28,.53,.64,0,1.28-.35,1.78-1.05,.02-.02,.03-.06,.03-.09V57.95c0-.05-.05-.08-.05-.13Zm-43.61,31.61l-8.9-8.9h8.9v8.9ZM44.74,26.08v15.45H8.3v-15.45H44.74Zm14.48,63.36l-12.51-12.51H22.78v-17.16H59.22v29.67Z"/>
  <g>
    <path class="cls-1" d="M70.39,13.81v4.03h-10.37v6.38h7.94v3.95h-7.94v10.51h-4.99V13.81h15.35Z"/>
    <path class="cls-1" d="M77.55,37.72c-1.52-.84-2.71-2.04-3.58-3.58-.87-1.54-1.3-3.32-1.3-5.34s.45-3.8,1.34-5.34,2.11-2.74,3.65-3.58c1.54-.84,3.26-1.26,5.17-1.26s3.62,.42,5.17,1.26c1.54,.84,2.76,2.04,3.65,3.58s1.34,3.32,1.34,5.34-.46,3.8-1.37,5.34c-.92,1.54-2.15,2.74-3.7,3.58-1.56,.84-3.29,1.26-5.22,1.26s-3.61-.42-5.13-1.26Zm7.68-3.74c.79-.44,1.43-1.1,1.91-1.98,.47-.88,.71-1.95,.71-3.21,0-1.88-.49-3.32-1.48-4.33-.99-1.01-2.19-1.51-3.62-1.51s-2.62,.5-3.58,1.51c-.96,1.01-1.44,2.45-1.44,4.33s.47,3.32,1.41,4.33c.94,1.01,2.12,1.51,3.54,1.51,.9,0,1.75-.22,2.55-.66Z"/>
    <path class="cls-1" d="M104.14,19.54c1.03-.59,2.21-.89,3.54-.89v5.24h-1.32c-1.57,0-2.75,.37-3.54,1.1-.8,.74-1.19,2.02-1.19,3.85v9.83h-4.99V18.94h4.99v3.06c.64-1.04,1.48-1.86,2.51-2.46Z"/>
    <path class="cls-1" d="M141.4,20.88c1.48,1.48,2.23,3.56,2.23,6.22v11.58h-4.99v-10.9c0-1.54-.39-2.72-1.18-3.54s-1.85-1.23-3.21-1.23-2.43,.41-3.22,1.23c-.8,.82-1.19,2-1.19,3.54v10.9h-4.99v-10.9c0-1.54-.39-2.72-1.17-3.54-.78-.82-1.85-1.23-3.21-1.23s-2.46,.41-3.26,1.23c-.8,.82-1.19,2-1.19,3.54v10.9h-4.99V18.94h4.99v2.39c.64-.83,1.47-1.48,2.48-1.96,1.01-.47,2.12-.71,3.33-.71,1.54,0,2.92,.33,4.13,.98s2.15,1.58,2.81,2.8c.64-1.14,1.57-2.05,2.8-2.74,1.22-.69,2.55-1.03,3.97-1.03,2.42,0,4.38,.74,5.86,2.23Z"/>
    <path class="cls-1" d="M95.33,70.76c.9,1.14,1.35,2.45,1.35,3.92,0,1.33-.33,2.5-.98,3.51-.65,1.01-1.6,1.8-2.83,2.37-1.23,.57-2.7,.85-4.38,.85h-10.72v-24.86h10.26c1.69,0,3.14,.27,4.36,.82,1.22,.55,2.15,1.31,2.78,2.28,.63,.97,.94,2.08,.94,3.31,0,1.45-.39,2.66-1.16,3.63s-1.8,1.66-3.08,2.07c1.4,.26,2.55,.96,3.46,2.1Zm-12.57-3.95h4.56c1.19,0,2.1-.27,2.74-.8,.64-.53,.96-1.3,.96-2.3s-.32-1.77-.96-2.32c-.64-.55-1.56-.82-2.74-.82h-4.56v6.23Zm7.85,9.69c.68-.57,1.02-1.38,1.02-2.42s-.36-1.91-1.07-2.51c-.71-.61-1.67-.91-2.89-.91h-4.92v6.7h5.02c1.21,0,2.15-.29,2.83-.85Z"/>
    <path class="cls-1" d="M119.3,61.68v19.73h-5.02v-2.49c-.64,.85-1.48,1.53-2.51,2.01s-2.15,.73-3.37,.73c-1.54,0-2.91-.33-4.1-.98-1.19-.65-2.12-1.61-2.8-2.88s-1.02-2.78-1.02-4.54v-11.58h4.99v10.86c0,1.57,.39,2.77,1.17,3.62,.78,.84,1.85,1.26,3.21,1.26s2.46-.42,3.24-1.26c.78-.84,1.18-2.05,1.18-3.62v-10.86h5.02Z"/>
    <path class="cls-1" d="M124.12,66.17c.8-1.54,1.88-2.73,3.26-3.56,1.38-.83,2.91-1.25,4.59-1.25,1.28,0,2.5,.28,3.67,.84,1.16,.56,2.09,1.3,2.78,2.23v-9.37h5.06v26.36h-5.06v-2.92c-.62,.97-1.48,1.76-2.6,2.35-1.12,.59-2.41,.89-3.88,.89-1.66,0-3.18-.43-4.56-1.28-1.38-.85-2.46-2.06-3.26-3.62-.79-1.55-1.19-3.34-1.19-5.36s.4-3.76,1.19-5.31Zm13.62,2.26c-.48-.87-1.12-1.53-1.92-1.99-.81-.46-1.67-.69-2.6-.69s-1.78,.23-2.56,.68c-.78,.45-1.42,1.11-1.91,1.98-.49,.87-.73,1.89-.73,3.08s.24,2.23,.73,3.12c.49,.89,1.13,1.57,1.92,2.05,.79,.47,1.64,.71,2.55,.71s1.79-.23,2.6-.69c.81-.46,1.45-1.13,1.92-2,.47-.87,.71-1.91,.71-3.12s-.24-2.25-.71-3.12Z"/>
  </g>
</svg>